<svg width="34" height="33" viewBox="0 0 34 33" fill="none" xmlns="http://www.w3.org/2000/svg">
<circle cx="29.9957" cy="3.69731" r="3.69231" fill="#EB5757"/>
<path d="M26.3033 25.8512V27.082H4.14941V25.8512L6.61095 23.3897V16.0051C6.60998 12.1942 9.11277 8.83545 12.7648 7.74659C12.7587 7.6277 12.7587 7.50856 12.7648 7.38967C12.7648 6.03016 13.8668 4.92813 15.2263 4.92813C16.5858 4.92813 17.6879 6.03016 17.6879 7.38967C17.6939 7.50856 17.6939 7.6277 17.6879 7.74659C21.3399 8.83545 23.8427 12.1942 23.8417 16.0051V23.3897L26.3033 25.8512ZM17.6879 28.3127C17.6879 29.6723 16.5858 30.7743 15.2263 30.7743C13.8668 30.7743 12.7648 29.6723 12.7648 28.3127" fill="white"/>
</svg>
