<svg width="21" height="33" viewBox="0 0 21 33" fill="none" xmlns="http://www.w3.org/2000/svg">
<path d="M10.5001 -8.1409e-05C8.33805 -0.00630058 6.22909 0.669081 4.47291 1.93008C2.71673 3.19107 1.40268 4.97352 0.717524 7.02409C0.0323657 9.07466 0.0109589 11.289 0.656346 13.3524C1.30173 15.4159 2.58108 17.2234 4.31255 18.5181V22.6874C4.3124 22.9583 4.36564 23.2266 4.46924 23.4769C4.57283 23.7272 4.72475 23.9546 4.9163 24.1462C5.10785 24.3377 5.33528 24.4896 5.58559 24.5932C5.83589 24.6968 6.10416 24.7501 6.37505 24.7499H14.6251C14.8959 24.7501 15.1642 24.6968 15.4145 24.5932C15.6648 24.4896 15.8923 24.3377 16.0838 24.1462C16.2754 23.9546 16.4273 23.7272 16.5309 23.4769C16.6345 23.2266 16.6877 22.9583 16.6876 22.6874V18.5181C18.419 17.2234 19.6984 15.4159 20.3438 13.3524C20.9891 11.289 20.9677 9.07466 20.2826 7.02409C19.5974 4.97352 18.2834 3.19107 16.5272 1.93008C14.771 0.669081 12.6621 -0.00630058 10.5001 -8.1409e-05Z" fill="black"/>
<path d="M14.625 28.875H6.375C5.82799 28.875 5.30339 29.0923 4.91659 29.4791C4.5298 29.8659 4.3125 30.3905 4.3125 30.9375C4.3125 31.4845 4.5298 32.0091 4.91659 32.3959C5.30339 32.7827 5.82799 33 6.375 33H14.625C15.172 33 15.6966 32.7827 16.0834 32.3959C16.4702 32.0091 16.6875 31.4845 16.6875 30.9375C16.6875 30.3905 16.4702 29.8659 16.0834 29.4791C15.6966 29.0923 15.172 28.875 14.625 28.875Z" fill="black"/>
</svg>
