<svg width="17" height="10" viewBox="0 0 17 10" fill="none" xmlns="http://www.w3.org/2000/svg">
<path opacity="0.3" d="M1.39729 1.02331C1.00193 1.36794 0.974218 1.96188 1.33792 2.3406L1.33816 2.34084L7.67078 8.92288C7.67085 8.92296 7.67092 8.92303 7.67099 8.92311L7.67115 8.92327L7.94139 8.66327L1.39729 1.02331ZM1.39729 1.02331C1.78178 0.687606 2.37321 0.711569 2.72744 1.0795L2.7275 1.07957L8.3664 6.93983M1.39729 1.02331L8.10621 7.21026M9.06147 8.92288C9.06139 8.92296 9.06132 8.92303 9.06125 8.92311L9.06147 8.92288ZM9.06147 8.92288L15.3941 2.34084L15.3943 2.3406C15.7581 1.96182 15.7303 1.36775 15.3348 1.02315L15.0884 1.30589C14.8544 1.10097 14.4892 1.11643 14.275 1.33959M9.06147 8.92288L15.3355 1.02378C14.9516 0.68755 14.3584 0.711358 14.0046 1.07976L14.0047 1.07959L14.275 1.33959M14.275 1.33959L14.0045 1.07987L8.3664 6.93983M14.275 1.33959L8.6266 7.21025L8.3664 6.93983M8.3664 6.93983L8.10621 7.21026M8.10621 7.21026L2.45728 1.33959C2.24245 1.11643 1.87839 1.10097 1.64381 1.30589L8.10621 7.21026Z" fill="white" stroke="white" stroke-width="0.75"/>
</svg>
