<svg width="13" height="12" viewBox="0 0 13 12" fill="none" xmlns="http://www.w3.org/2000/svg">
<g clip-path="url(#clip0)">
<path fill-rule="evenodd" clip-rule="evenodd" d="M6.255 12C2.9465 12 0.255005 9.3085 0.255005 6C0.255005 2.6915 2.9465 0 6.255 0C9.56351 0 12.255 2.6915 12.255 6C12.255 9.3085 9.56351 12 6.255 12ZM6.255 1C3.498 1 1.255 3.243 1.255 6C1.255 8.757 3.498 11 6.255 11C9.012 11 11.255 8.757 11.255 6C11.255 3.243 9.012 1 6.255 1ZM8.255 8.5C8.12701 8.5 7.999 8.451 7.9015 8.3535L5.902 6.354C5.8555 6.3075 5.819 6.2525 5.7935 6.191C5.768 6.13 5.755 6.065 5.755 6V2.5C5.755 2.224 5.97851 2 6.255 2C6.5315 2 6.755 2.224 6.755 2.5V5.793L8.60851 7.6465C8.80401 7.842 8.80401 8.158 8.60851 8.3535C8.51101 8.451 8.38301 8.5 8.255 8.5Z" fill="#BB29BB"/>
</g>
<defs>
<clipPath id="clip0">
<rect width="12" height="12" fill="white" transform="translate(0.255005)"/>
</clipPath>
</defs>
</svg>
