<svg width="40" height="40" viewBox="0 0 40 40" fill="none" xmlns="http://www.w3.org/2000/svg">
<path d="M39.2187 38.4374H35.7812V32.2656C35.7812 31.8341 35.4314 31.4843 35 31.4843C34.5686 31.4843 34.2187 31.8341 34.2187 32.2656V38.4374H24.8438V23.5937C24.8438 23.1623 24.4939 22.8125 24.0625 22.8125H15.9375C15.5061 22.8125 15.1563 23.1623 15.1563 23.5937V38.4374H5.78133V20.7812H6.08195C6.28914 20.7812 6.48781 20.6988 6.63437 20.5523L20 7.18668L33.3657 20.5523C33.5122 20.6988 33.7109 20.7812 33.9181 20.7812H34.2187V26.6405C34.2187 27.072 34.5686 27.4218 35 27.4218C35.4314 27.4218 35.7812 27.072 35.7812 26.6405V20.7812H39.2187C39.5347 20.7812 39.8195 20.5908 39.9405 20.2989C40.0614 20.007 39.9945 19.6709 39.7711 19.4475L20.5524 0.228808C20.2473 -0.0762693 19.7528 -0.0762693 19.4475 0.228808L12.1038 7.57254C11.7987 7.87761 11.7987 8.3723 12.1038 8.67738C12.409 8.98253 12.9036 8.98253 13.2087 8.67738L20 1.88607L37.3325 19.2187H34.2417L20.5524 5.52942C20.2473 5.22434 19.7528 5.22434 19.4475 5.52942L5.75828 19.2187H2.66743L8.83374 13.0524C9.13881 12.7474 9.13881 12.2527 8.83374 11.9475C8.52866 11.6425 8.03398 11.6424 7.72882 11.9475L0.22885 19.4475C0.00549186 19.6709 -0.061461 20.007 0.059476 20.2989C0.180413 20.5909 0.465334 20.7812 0.781348 20.7812H4.21883V38.4374H0.781348C0.349944 38.4374 0.000101256 38.7871 0.000101256 39.2186C0.000101256 39.6501 0.349944 39.9999 0.781348 39.9999H5.00008H15.9375H24.0625H35H39.2187C39.6501 39.9999 39.9999 39.6501 39.9999 39.2186C39.9999 38.7871 39.6501 38.4374 39.2187 38.4374ZM23.2813 38.4374H16.7188V24.375H23.2813V38.4374Z" fill="white"/>
</svg>
