<svg width="93" height="95" viewBox="0 0 93 95" fill="none" xmlns="http://www.w3.org/2000/svg">
<g filter="url(#filter0_d)">
<ellipse cx="45.1818" cy="46.0385" rx="35" ry="35.0306" fill="white"/>
</g>
<path d="M37.5182 49.9727C38.3449 50.1993 38.9782 50.6127 39.4182 51.2127C39.8716 51.8127 40.0982 52.546 40.0982 53.4127C40.0982 54.6527 39.6316 55.626 38.6982 56.3327C37.7649 57.026 36.4716 57.3727 34.8182 57.3727C33.1649 57.3727 31.8716 57.026 30.9382 56.3327C30.0049 55.626 29.5382 54.6527 29.5382 53.4127C29.5382 52.546 29.7649 51.8127 30.2182 51.2127C30.6716 50.5993 31.3116 50.186 32.1382 49.9727C31.4316 49.706 30.8782 49.2927 30.4782 48.7327C30.0782 48.1593 29.8782 47.4927 29.8782 46.7327C29.8782 45.5593 30.3182 44.6327 31.1982 43.9527C32.0782 43.2727 33.2849 42.9327 34.8182 42.9327C36.3516 42.9327 37.5582 43.2727 38.4382 43.9527C39.3182 44.6327 39.7582 45.5593 39.7582 46.7327C39.7582 47.506 39.5582 48.1793 39.1582 48.7527C38.7582 49.326 38.2116 49.7327 37.5182 49.9727ZM34.8182 44.9527C33.1516 44.9527 32.3182 45.6327 32.3182 46.9927C32.3182 47.6727 32.5249 48.1927 32.9382 48.5527C33.3649 48.8993 33.9916 49.0727 34.8182 49.0727C35.6449 49.0727 36.2649 48.8993 36.6782 48.5527C37.1049 48.1927 37.3182 47.6727 37.3182 46.9927C37.3182 45.6327 36.4849 44.9527 34.8182 44.9527ZM34.8182 55.3527C36.7249 55.3527 37.6782 54.6393 37.6782 53.2127C37.6782 51.786 36.7249 51.0727 34.8182 51.0727C32.9116 51.0727 31.9582 51.786 31.9582 53.2127C31.9582 54.6393 32.9116 55.3527 34.8182 55.3527ZM46.8104 57.3927C45.1438 57.3927 43.8704 56.7793 42.9904 55.5527C42.1104 54.3127 41.6704 52.5127 41.6704 50.1527C41.6704 47.806 42.1104 46.0193 42.9904 44.7927C43.8704 43.5527 45.1438 42.9327 46.8104 42.9327C48.4771 42.9327 49.7504 43.5527 50.6304 44.7927C51.5104 46.0193 51.9504 47.806 51.9504 50.1527C51.9504 52.4993 51.5104 54.2927 50.6304 55.5327C49.7504 56.7727 48.4771 57.3927 46.8104 57.3927ZM46.8104 55.3727C47.7171 55.3727 48.3771 54.9593 48.7904 54.1327C49.2038 53.2927 49.4104 51.966 49.4104 50.1527C49.4104 48.326 49.2038 47.006 48.7904 46.1927C48.3771 45.366 47.7171 44.9527 46.8104 44.9527C45.9038 44.9527 45.2438 45.366 44.8304 46.1927C44.4171 47.0193 44.2104 48.3393 44.2104 50.1527C44.2104 51.966 44.4171 53.2927 44.8304 54.1327C45.2438 54.9593 45.9038 55.3727 46.8104 55.3727ZM59.4426 56.9327C59.3226 57.146 59.1759 57.306 59.0026 57.4127C58.8293 57.5193 58.6559 57.5727 58.4826 57.5727C58.2426 57.5727 58.0293 57.486 57.8426 57.3127C57.6693 57.1393 57.5826 56.9193 57.5826 56.6527C57.5826 56.426 57.6493 56.1993 57.7826 55.9727L65.0626 43.3927C65.1826 43.1793 65.3293 43.0193 65.5026 42.9127C65.6759 42.806 65.8493 42.7527 66.0226 42.7527C66.2626 42.7527 66.4693 42.8393 66.6426 43.0127C66.8293 43.186 66.9226 43.406 66.9226 43.6727C66.9226 43.8993 66.8559 44.126 66.7226 44.3527L59.4426 56.9327ZM57.2226 51.5327C56.1026 51.5327 55.2293 51.166 54.6026 50.4327C53.9759 49.6993 53.6626 48.626 53.6626 47.2127C53.6626 45.8127 53.9759 44.746 54.6026 44.0127C55.2293 43.2793 56.1026 42.9127 57.2226 42.9127C58.3426 42.9127 59.2159 43.2793 59.8426 44.0127C60.4826 44.746 60.8026 45.8127 60.8026 47.2127C60.8026 48.626 60.4826 49.6993 59.8426 50.4327C59.2159 51.166 58.3426 51.5327 57.2226 51.5327ZM57.2226 49.9127C57.7293 49.9127 58.0959 49.706 58.3226 49.2927C58.5626 48.866 58.6826 48.1727 58.6826 47.2127C58.6826 46.2793 58.5626 45.5993 58.3226 45.1727C58.0826 44.746 57.7159 44.5327 57.2226 44.5327C56.7293 44.5327 56.3626 44.746 56.1226 45.1727C55.8959 45.586 55.7826 46.266 55.7826 47.2127C55.7826 48.1727 55.8959 48.866 56.1226 49.2927C56.3626 49.706 56.7293 49.9127 57.2226 49.9127ZM67.2826 57.3527C66.1626 57.3527 65.2893 56.986 64.6626 56.2527C64.0359 55.5193 63.7226 54.4393 63.7226 53.0127C63.7226 51.6127 64.0359 50.5527 64.6626 49.8327C65.3026 49.0993 66.1759 48.7327 67.2826 48.7327C68.4026 48.7327 69.2759 49.0993 69.9026 49.8327C70.5293 50.566 70.8426 51.6327 70.8426 53.0327C70.8426 54.446 70.5293 55.5193 69.9026 56.2527C69.2759 56.986 68.4026 57.3527 67.2826 57.3527ZM67.2826 55.7327C67.7759 55.7327 68.1426 55.526 68.3826 55.1127C68.6226 54.686 68.7426 53.9927 68.7426 53.0327C68.7426 52.0993 68.6226 51.4193 68.3826 50.9927C68.1426 50.566 67.7759 50.3527 67.2826 50.3527C66.7893 50.3527 66.4226 50.566 66.1826 50.9927C65.9426 51.4193 65.8226 52.0993 65.8226 53.0327C65.8226 53.9927 65.9426 54.686 66.1826 55.1127C66.4226 55.526 66.7893 55.7327 67.2826 55.7327Z" fill="#17B899"/>
<path d="M24.9071 87.1467V87.1467C31.0333 90.2997 37.9766 92.0787 45.3336 92.0787C70.1026 92.0787 90.1818 71.9139 90.1818 47.0394C90.1818 22.1648 70.1026 2 45.3336 2" stroke="#17B899" stroke-width="4" stroke-linecap="round"/>
<defs>
<filter id="filter0_d" x="0.181763" y="1.00787" width="90" height="90.0612" filterUnits="userSpaceOnUse" color-interpolation-filters="sRGB">
<feFlood flood-opacity="0" result="BackgroundImageFix"/>
<feColorMatrix in="SourceAlpha" type="matrix" values="0 0 0 0 0 0 0 0 0 0 0 0 0 0 0 0 0 0 127 0" result="hardAlpha"/>
<feOffset/>
<feGaussianBlur stdDeviation="5"/>
<feColorMatrix type="matrix" values="0 0 0 0 0 0 0 0 0 0 0 0 0 0 0 0 0 0 0.03 0"/>
<feBlend mode="normal" in2="BackgroundImageFix" result="effect1_dropShadow"/>
<feBlend mode="normal" in="SourceGraphic" in2="effect1_dropShadow" result="shape"/>
</filter>
</defs>
</svg>
