<svg width="35" height="35" viewBox="0 0 35 35" fill="none" xmlns="http://www.w3.org/2000/svg">
<rect opacity="0.1" width="35" height="35" rx="17.5" fill="#17B899"/>
<path d="M19.3999 20.5689C19.2085 20.3682 19.2328 20.0608 19.4475 19.8882L19.4476 19.8881L24.7022 15.6704L19.4348 11.1404L19.4348 11.1404C19.2254 10.9602 19.2138 10.6518 19.4112 10.4583L19.4116 10.4579L19.4116 10.4579C19.6021 10.2725 19.9152 10.2625 20.1173 10.4371L20.117 10.4369L20.0192 10.5506L20.1173 10.4372L25.8076 15.331L25.8078 15.3311C25.9128 15.4215 25.9749 15.5517 25.9722 15.6913L25.8222 15.6884M19.3999 20.5689C19.3998 20.5688 19.3998 20.5688 19.3998 20.5688L19.5084 20.4654L19.3999 20.5689ZM19.3999 20.5689C19.501 20.675 19.6402 20.7266 19.7759 20.7266C19.89 20.7266 20.0076 20.6908 20.1041 20.6129L20.1039 20.6131L20.01 20.4961M20.01 20.4961L20.1042 20.6128L25.7948 16.0452C25.903 15.9584 25.9695 15.8302 25.9722 15.6913L25.8222 15.6884M20.01 20.4961L25.7009 15.9282C25.7764 15.8677 25.8205 15.7804 25.8222 15.6884M20.01 20.4961L25.7098 15.4447C25.7831 15.5078 25.824 15.5962 25.8222 15.6884M17.287 16.9879C17.2898 16.9881 17.2926 16.9881 17.2953 16.9881C17.2993 16.9881 17.3034 16.9882 17.3076 16.9886M17.287 16.9879L17.5808 17.1423C17.578 17.1381 17.5752 17.1338 17.5724 17.1295C17.5639 17.1162 17.5554 17.103 17.5438 17.0916C17.5315 17.0798 17.5168 17.0706 17.5019 17.0614C17.4975 17.0586 17.4931 17.0559 17.4887 17.053C17.4837 17.0498 17.4788 17.0464 17.4739 17.043C17.4613 17.0342 17.4488 17.0255 17.4339 17.0193C17.418 17.0124 17.4005 17.0091 17.3828 17.0058C17.3764 17.0046 17.3699 17.0034 17.3635 17.002C17.3563 17.0005 17.3494 16.9984 17.3426 16.9962C17.3313 16.9927 17.32 16.9892 17.3076 16.9886M17.287 16.9879C17.2867 16.9879 17.2863 16.9876 17.2859 16.9876L17.287 16.9879ZM17.3076 16.9886L17.3149 16.8406L17.3211 16.8418C17.3269 16.8431 17.3316 16.8446 17.335 16.8458C17.3398 16.8475 17.3435 16.849 17.3456 16.8499L17.3459 16.85C17.3439 16.8492 17.3402 16.8476 17.3356 16.846C17.3321 16.8448 17.3272 16.8433 17.3211 16.8419L17.3076 16.9886ZM17.7043 17.057C17.7045 17.0573 17.7047 17.0576 17.705 17.058C17.7127 17.068 17.7389 17.1024 17.754 17.1377L17.7548 17.1397L17.7548 17.1398C17.7648 17.164 17.7694 17.1863 17.772 17.2008C17.7743 17.2134 17.7749 17.2173 17.7752 17.22L17.7043 17.057ZM17.7043 17.057C17.6996 17.0495 17.676 17.0113 17.649 16.9847L17.649 16.9847L17.6477 16.9835C17.6218 16.9585 17.5863 16.937 17.574 16.9295C17.5722 16.9284 17.5709 16.9276 17.5702 16.9271L17.5611 16.9209C17.5573 16.9183 17.5514 16.9141 17.5453 16.9101C17.533 16.9019 17.5151 16.8907 17.4925 16.8812C17.4684 16.8709 17.4459 16.8655 17.4305 16.8623C17.4265 16.8614 17.4225 16.8607 17.4189 16.86C17.4153 16.8593 17.412 16.8586 17.4092 16.8581L17.3952 16.8554L17.3947 16.8553C17.3944 16.8552 17.3937 16.855 17.3926 16.8547L17.3874 16.8531L17.3791 16.8505C17.3675 16.847 17.3454 16.8407 17.3183 16.8389C17.3172 16.8389 17.3161 16.8388 17.315 16.8388L17.3149 16.8404C17.3101 16.8395 17.3046 16.8386 17.2986 16.8381L17.2945 16.8381L17.7043 17.057ZM9.98652 19.1406C10.3819 17.7062 11.0871 16.5712 12.0917 15.7423L12.0917 15.7423C14.276 13.9393 17.2021 14.1959 17.2351 14.1988L17.2351 14.1988L17.2482 14.0493M9.98652 19.1406L17.319 14.0459C17.3084 14.0486 17.2977 14.0513 17.2859 14.0513C17.2824 14.0513 17.2792 14.0504 17.276 14.0495C17.2729 14.0487 17.2698 14.0479 17.2664 14.0477C17.2633 14.0475 17.2605 14.0481 17.2577 14.0486C17.2547 14.0491 17.2516 14.0497 17.2482 14.0493M9.98652 19.1406C10.1768 18.9287 10.3932 18.7194 10.6391 18.5181C12.1975 17.2418 14.441 16.6848 17.2836 16.8376C17.2844 16.8376 17.2852 16.8376 17.2859 16.8376L9.98652 19.1406ZM17.2482 14.0493L17.233 14.1986C17.2429 14.1996 17.2517 14.1996 17.2592 14.1992C17.2666 14.2004 17.2756 14.2013 17.2859 14.2013C17.3139 14.2013 17.3369 14.196 17.3486 14.1931L17.3564 14.1912L17.361 14.19C17.3615 14.1899 17.3618 14.1899 17.3621 14.1898M17.2482 14.0493L17.248 14.0493C17.2067 14.0457 14.2285 13.784 11.9962 15.6266L17.3621 14.1898M17.3621 14.1898C17.3634 14.1896 17.3651 14.1894 17.3671 14.1892C17.3835 14.1871 17.4203 14.1825 17.4533 14.1713M17.3621 14.1898L17.7838 13.7758L17.6395 13.7598M17.4533 14.1713C17.453 14.1714 17.4527 14.1715 17.4524 14.1716L17.4058 14.029L17.4545 14.1709C17.4541 14.1711 17.4537 14.1712 17.4533 14.1713ZM17.4533 14.1713C17.488 14.1599 17.5181 14.1429 17.5346 14.1335C17.5365 14.1324 17.5382 14.1314 17.5398 14.1306L17.4666 13.9996M17.4666 13.9996L17.4698 13.9979C17.4882 13.9881 17.506 13.9786 17.5221 13.9656C17.5371 13.953 17.5489 13.9383 17.5609 13.9234C17.5623 13.9217 17.5637 13.9199 17.5652 13.9181M17.4666 13.9996L17.5374 14.1319C17.5387 14.1312 17.5402 14.1304 17.5417 14.1296C17.5588 14.1205 17.5885 14.1047 17.6162 14.0824L17.6162 14.0825L17.6187 14.0803C17.6458 14.0576 17.6671 14.0309 17.6782 14.017C17.6795 14.0153 17.6807 14.0138 17.6817 14.0126L17.5652 13.9181M17.4666 13.9996L17.5652 13.9181M17.5652 13.9181L17.6805 14.014C17.6816 14.0128 17.6828 14.0113 17.6842 14.0097C17.6957 13.9961 17.7177 13.97 17.7347 13.9387L17.7352 13.9378C17.7534 13.9037 17.7631 13.8669 17.7677 13.8495C17.7679 13.8488 17.768 13.8481 17.7682 13.8474L17.7686 13.8464L17.7713 13.84C17.7754 13.8303 17.7852 13.8067 17.7886 13.7763L17.7839 13.7758C17.7849 13.7727 17.7862 13.7681 17.7874 13.7629C17.7881 13.7597 17.7888 13.756 17.7895 13.7518M17.7895 13.7518C17.7898 13.7593 17.7896 13.7681 17.7884 13.7778L17.7835 13.7772C17.7832 13.7781 17.783 13.7788 17.7829 13.7792L17.7828 13.7795C17.7824 13.7809 17.7825 13.7804 17.7826 13.7802L17.7834 13.7772L17.6395 13.7598M17.7895 13.7518C17.7907 13.7443 17.7916 13.7353 17.7916 13.7251V11.8685M17.7895 13.7518C17.7893 13.7467 17.789 13.7423 17.7885 13.7384C17.7879 13.7331 17.7871 13.7284 17.7865 13.7251C17.786 13.7227 17.7857 13.721 17.7855 13.7204C17.7852 13.7188 17.7853 13.7195 17.7854 13.7198L17.7863 13.7249C17.7863 13.725 17.7863 13.725 17.7863 13.7251C17.7871 13.7302 17.7882 13.7396 17.7875 13.7517L17.6246 13.804C17.6263 13.7978 17.6288 13.792 17.6312 13.7863C17.6349 13.7778 17.6385 13.7694 17.6395 13.7598M17.6395 13.7598C17.6399 13.7567 17.6393 13.7537 17.6387 13.7508C17.6381 13.7483 17.6376 13.7457 17.6377 13.7431C17.6379 13.7402 17.6388 13.7373 17.6397 13.7345C17.6407 13.7315 17.6417 13.7284 17.6417 13.7251V11.7395L17.7916 11.8685M17.7916 11.8685L22.2126 15.6704M17.7916 11.8685L22.2126 15.6704M22.2126 15.6704L17.7916 19.2189V17.3141C17.7916 17.2837 17.7852 17.259 17.7816 17.2459L17.7791 17.2373L17.7775 17.2319C17.7772 17.2308 17.7771 17.2302 17.777 17.2299L22.2126 15.6704ZM17.3483 16.8511C17.3477 16.8508 17.3469 16.8505 17.3461 16.8501L17.3482 16.851L17.3483 16.8511ZM17.3483 16.8511C17.3489 16.8514 17.3492 16.8515 17.3491 16.8514L17.349 16.8514L17.3488 16.8513L17.3483 16.8511ZM17.6141 20.6132L17.6142 20.6131L23.3052 16.0452C23.4134 15.9584 23.4799 15.8302 23.4826 15.6913C23.4853 15.5517 23.4232 15.4215 23.3181 15.3311L23.318 15.331L17.6274 10.4369L17.6274 10.4369C17.4803 10.3104 17.2698 10.2781 17.0894 10.3497C16.9075 10.4219 16.7806 10.5915 16.7806 10.7888V13.2294C15.7298 13.2282 13.3728 13.4227 11.4324 15.0197C9.54389 16.5737 8.6 19.003 8.6 22.2082C8.6 22.4774 8.82983 22.6768 9.09131 22.684L9.09131 22.684H9.09539H9.09541H9.09543H9.09546H9.09548H9.0955H9.09552H9.09554H9.09556H9.09558H9.0956H9.09562H9.09564H9.09566H9.09568H9.0957H9.09573H9.09575H9.09577H9.09579H9.09581H9.09583H9.09585H9.09587H9.09589H9.09591H9.09593H9.09595H9.09597H9.09599H9.09601H9.09604H9.09606H9.09608H9.0961H9.09612H9.09614H9.09616H9.09618H9.0962H9.09622H9.09624H9.09626H9.09628H9.0963H9.09632H9.09634H9.09636H9.09638H9.09641H9.09643H9.09645H9.09647H9.09649H9.09651H9.09653H9.09655H9.09657H9.09659H9.09661H9.09663H9.09665H9.09667H9.09669H9.09671H9.09673H9.09675H9.09677H9.09679H9.09681H9.09683H9.09685H9.09687H9.0969H9.09692H9.09694H9.09696H9.09698H9.097H9.09702H9.09704H9.09706H9.09708H9.0971H9.09712H9.09714H9.09716H9.09718H9.0972H9.09722H9.09724H9.09726H9.09728H9.0973H9.09732H9.09734H9.09736H9.09738H9.0974H9.09742H9.09744H9.09746H9.09748H9.0975H9.09752H9.09754H9.09756H9.09758H9.0976H9.09762H9.09764H9.09766H9.09768H9.0977H9.09772H9.09774H9.09776H9.09778H9.0978H9.09782H9.09784H9.09786H9.09788H9.09791H9.09793H9.09795H9.09797H9.09799H9.09801H9.09803H9.09805H9.09807H9.09809H9.09811H9.09813H9.09815H9.09817H9.09819H9.09821H9.09823H9.09825H9.09827H9.09829H9.09831H9.09833H9.09835H9.09837H9.09839H9.09841H9.09843H9.09845H9.09847H9.09849H9.09851H9.09853H9.09855H9.09857H9.09859H9.09861H9.09863H9.09865H9.09867H9.09869H9.09871H9.09873H9.09875H9.09877H9.09878H9.0988H9.09882H9.09884H9.09886H9.09888H9.0989H9.09892H9.09894H9.09896H9.09898H9.099H9.09902H9.09904H9.09906H9.09908H9.0991H9.09912H9.09914H9.09916H9.09918H9.0992H9.09922H9.09924H9.09926H9.09928H9.0993H9.09932H9.09934H9.09936H9.09938H9.0994H9.09942H9.09944H9.09946H9.09948H9.0995H9.09952H9.09954H9.09956H9.09958H9.0996H9.09962H9.09964H9.09966H9.09968H9.0997H9.09972H9.09974H9.09976H9.09978H9.0998H9.09982H9.09984H9.09986H9.09988H9.0999H9.09992H9.09994H9.09996H9.09998H9.1H9.10002H9.10004H9.10006H9.10008H9.1001H9.10012H9.10014H9.10015H9.10017H9.10019H9.10021H9.10023H9.10025H9.10027H9.10029H9.10031H9.10033H9.10035H9.10037H9.10039H9.10041H9.10043H9.10045H9.10047H9.10049H9.10051H9.10053H9.10055H9.10057H9.10059H9.10061H9.10063H9.10065H9.10067H9.10069H9.10071H9.10073H9.10075H9.10077H9.10079H9.10081H9.10083H9.10085H9.10087H9.10089H9.10091H9.10093H9.10095H9.10097H9.10099H9.10101H9.10103H9.10105H9.10107H9.10109H9.10111H9.10113H9.10115H9.10116H9.10118H9.1012H9.10122H9.10124H9.10126H9.10128H9.1013H9.10132H9.10134H9.10136H9.10138H9.1014H9.10142H9.10144H9.10146H9.10148H9.1015H9.10152H9.10154H9.10156H9.10158H9.1016H9.10162H9.10164H9.10166H9.10168H9.1017H9.10172H9.10174H9.10176H9.10178H9.1018H9.10182H9.10184H9.10186H9.10188H9.1019H9.10192H9.10194H9.10196H9.10198H9.102H9.10202H9.10204H9.10206H9.10208H9.1021H9.10212H9.10214H9.10216H9.10218H9.1022H9.10222H9.10224H9.10226H9.10228H9.1023H9.10232H9.10234H9.10236H9.10238H9.1024H9.10242H9.10244H9.10246H9.10248H9.1025H9.10252H9.10254H9.10256H9.10258H9.1026H9.10262H9.10264H9.10266H9.10268H9.1027H9.10272H9.10274H9.10276H9.10278H9.1028H9.10282H9.10284H9.10286H9.10288H9.1029H9.10292H9.10294H9.10296H9.10298H9.103H9.10302H9.10304H9.10306H9.10308H9.1031H9.10312H9.10314H9.10316H9.10318H9.1032H9.10322H9.10324H9.10326H9.10328H9.1033H9.10332H9.10334H9.10336H9.10338H9.1034H9.10342H9.10344H9.10346H9.10348H9.1035H9.10352H9.10354H9.10356H9.10358H9.1036H9.10362H9.10364H9.10366H9.10368H9.1037H9.10372H9.10374H9.10376H9.10378H9.1038H9.10382H9.10384H9.10386H9.10388H9.1039H9.10392H9.10394H9.10396H9.10398H9.104H9.10402H9.10404H9.10406H9.10408H9.10411H9.10413H9.10415H9.10417H9.10419H9.10421H9.10423H9.10425H9.10427H9.10429H9.10431H9.10433H9.10435H9.10437H9.10439H9.10441H9.10443H9.10445H9.10447H9.10449H9.10451H9.10453H9.10455H9.10457H9.10459H9.10461H9.10464H9.10466H9.10468H9.1047H9.10472H9.10474H9.10476H9.10478H9.1048H9.10482H9.10484H9.10486H9.10488H9.1049H9.10492H9.10494H9.10496H9.10498H9.105H9.10503H9.10505H9.10507H9.10509H9.10511H9.10513H9.10515H9.10517H9.10519H9.10521H9.10523H9.10525H9.10527H9.10529H9.10531H9.10533H9.10536H9.10538H9.1054H9.10542H9.10544H9.10546H9.10548H9.1055H9.10552H9.10554H9.10556H9.10558H9.1056H9.10563H9.10565H9.10567H9.10569H9.10571C9.3614 22.684 9.59365 22.4985 9.6104 22.236L9.61044 22.2354L9.61046 22.2351C9.61133 22.2239 9.64444 21.7971 9.86968 21.2141C10.0983 20.6221 10.5237 19.8721 11.3119 19.2298C12.5663 18.2077 14.4022 17.7169 16.7806 17.777V20.2504C16.7806 20.4448 16.9039 20.6122 17.0818 20.6863L17.0824 20.6865C17.1479 20.7135 17.2171 20.7266 17.2859 20.7266C17.4025 20.7266 17.5197 20.6888 17.6141 20.6132ZM17.6417 17.3141V19.3393L17.616 17.1967C17.6218 17.2108 17.6242 17.2257 17.6267 17.2408C17.6277 17.247 17.6287 17.2533 17.6299 17.2595C17.6312 17.2661 17.6331 17.2725 17.635 17.2789C17.6383 17.2902 17.6417 17.3016 17.6417 17.3141Z" fill="#17B899" stroke="#17B899" stroke-width="0.3" stroke-linecap="round" stroke-linejoin="round"/>
</svg>
