<svg width="35" height="35" viewBox="0 0 35 35" fill="none" xmlns="http://www.w3.org/2000/svg">
<rect opacity="0.1" width="35" height="35" rx="17.5" fill="#B82117"/>
<path d="M14.5616 12.8081C14.782 12.9764 14.806 13.2838 14.6211 13.4879L14.621 13.488L10.0908 18.4758L16.002 22.126L16.0021 22.126C16.237 22.2712 16.2967 22.574 16.1321 22.796L16.1317 22.7965L16.1317 22.7965C15.9726 23.0093 15.6649 23.0683 15.438 22.9274L15.4383 22.9275L15.5171 22.7999L15.4379 22.9273L9.05211 18.984L9.05198 18.9839C8.93411 18.9109 8.85238 18.7921 8.83319 18.6538L8.98177 18.6332M14.5616 12.8081C14.5616 12.8082 14.5617 12.8082 14.5617 12.8082L14.4706 12.9274L14.5616 12.8081ZM14.5616 12.8081C14.4451 12.7191 14.2996 12.69 14.1655 12.7112C14.0529 12.729 13.9423 12.7828 13.8592 12.8748L13.8594 12.8746L13.9704 12.9755M13.9704 12.9755L13.8591 12.875L8.95302 18.2765C8.85979 18.3791 8.81413 18.5162 8.83319 18.6538L8.98177 18.6332M13.9704 12.9755L9.06406 18.3773C8.99905 18.4489 8.96915 18.5421 8.98177 18.6332M13.9704 12.9755L9.13092 18.8563C9.04867 18.8054 8.99445 18.7246 8.98177 18.6332M17.2086 16.0145C17.2058 16.0148 17.2031 16.0152 17.2004 16.0156C17.1964 16.0162 17.1924 16.0168 17.1882 16.0171M17.2086 16.0145L16.8943 15.9079C16.8978 15.9117 16.9012 15.9155 16.9046 15.9193C16.9151 15.9311 16.9256 15.9428 16.9387 15.9522C16.9528 15.962 16.9687 15.9687 16.9849 15.9756C16.9897 15.9776 16.9945 15.9796 16.9992 15.9817C17.0047 15.9842 17.0101 15.9868 17.0154 15.9893C17.0292 15.9961 17.0429 16.0027 17.0586 16.0064C17.0754 16.0108 17.0932 16.0113 17.1112 16.0118C17.1177 16.012 17.1243 16.0122 17.1309 16.0125C17.1382 16.0129 17.1453 16.0139 17.1525 16.015C17.1642 16.0167 17.1758 16.0184 17.1882 16.0171M17.2086 16.0145C17.209 16.0144 17.2094 16.0147 17.2097 16.0146L17.2086 16.0145ZM17.1882 16.0171L17.2041 16.1644L17.1978 16.1642C17.1919 16.1637 17.187 16.163 17.1834 16.1623C17.1785 16.1615 17.1746 16.1605 17.1723 16.16L17.172 16.1599C17.1742 16.1604 17.178 16.1614 17.1829 16.1622C17.1865 16.1629 17.1916 16.1636 17.1978 16.1641L17.1882 16.0171ZM16.7857 16.0115C16.7855 16.0113 16.7852 16.011 16.7848 16.0107C16.7757 16.0019 16.7444 15.9721 16.724 15.9396L16.7228 15.9377L16.7228 15.9377C16.7092 15.9153 16.7011 15.894 16.6963 15.8801C16.6921 15.868 16.6909 15.8643 16.6901 15.8616L16.7857 16.0115ZM16.7857 16.0115C16.7914 16.0182 16.8208 16.0523 16.8516 16.0743L16.8516 16.0743L16.853 16.0753C16.8826 16.0959 16.921 16.1116 16.9343 16.1171C16.9362 16.1179 16.9377 16.1185 16.9384 16.1189L16.9484 16.1236C16.9525 16.1256 16.959 16.1287 16.9657 16.1318C16.9791 16.138 16.9986 16.1462 17.0224 16.152C17.0477 16.1584 17.0708 16.1602 17.0866 16.161C17.0906 16.1612 17.0947 16.1614 17.0984 16.1615C17.1021 16.1616 17.1054 16.1617 17.1082 16.1618L17.1225 16.1623L17.1231 16.1623C17.1234 16.1624 17.124 16.1625 17.1252 16.1626L17.1306 16.1634L17.1391 16.1646C17.1512 16.1662 17.174 16.1691 17.2011 16.1665C17.2021 16.1664 17.2032 16.1663 17.2043 16.1662L17.2041 16.1645C17.2091 16.1647 17.2146 16.1647 17.2206 16.1642L17.2247 16.1636L16.7857 16.0115ZM24.0825 12.7463C23.9164 14.2248 23.3974 15.4562 22.5349 16.432L22.5349 16.4321C20.6594 18.5546 17.7293 18.7589 17.6963 18.7612L17.6962 18.7612L17.7066 18.9108M24.0825 12.7463L17.6372 18.9253C17.6473 18.921 17.6575 18.9166 17.6691 18.9148C17.6725 18.9142 17.6758 18.9146 17.6792 18.915C17.6823 18.9153 17.6855 18.9157 17.689 18.9153C17.692 18.915 17.6947 18.914 17.6974 18.9131C17.7003 18.912 17.7033 18.911 17.7066 18.9108M24.0825 12.7463C23.9277 12.9853 23.7467 13.2259 23.5353 13.4632C22.1958 14.9676 20.067 15.8686 17.2355 16.1624C17.2348 16.1625 17.234 16.1627 17.2332 16.1628L24.0825 12.7463ZM17.7066 18.9108L17.6983 18.7611C17.6884 18.7616 17.6797 18.763 17.6724 18.7645C17.6649 18.7645 17.6558 18.765 17.6456 18.7666C17.618 18.771 17.5962 18.7798 17.585 18.7845L17.5776 18.7876L17.5732 18.7895C17.5728 18.7897 17.5725 18.7898 17.5722 18.7899M17.7066 18.9108L17.7068 18.9108C17.7483 18.9079 20.7307 18.7005 22.6473 16.5314L17.5722 18.7899M17.5722 18.7899C17.5709 18.7903 17.5693 18.7908 17.5674 18.7913C17.5515 18.7959 17.5158 18.8063 17.485 18.8224M17.5722 18.7899L17.2204 19.2648L17.3655 19.258M17.485 18.8224C17.4853 18.8223 17.4856 18.8221 17.4859 18.8219L17.5542 18.9555L17.4839 18.823C17.4843 18.8228 17.4846 18.8226 17.485 18.8224ZM17.485 18.8224C17.4525 18.8392 17.4255 18.8607 17.4106 18.8725C17.4089 18.8739 17.4073 18.8751 17.406 18.8762L17.4987 18.9941M17.4987 18.9941L17.4959 18.9962C17.4792 19.0089 17.4631 19.021 17.4492 19.0364C17.4364 19.0512 17.427 19.0675 17.4175 19.0841C17.4164 19.0861 17.4152 19.088 17.4141 19.09M17.4987 18.9941L17.4081 18.8746C17.4069 18.8755 17.4056 18.8764 17.4042 18.8775C17.3888 18.8891 17.3619 18.9093 17.338 18.9357L17.338 18.9357L17.3359 18.9381C17.3127 18.9649 17.2958 18.9946 17.287 19.0101C17.286 19.0119 17.285 19.0135 17.2842 19.015L17.4141 19.09M17.4987 18.9941L17.4141 19.09M17.4141 19.09L17.2852 19.0133C17.2844 19.0147 17.2834 19.0163 17.2823 19.0182C17.273 19.0334 17.2554 19.0626 17.2435 19.0961L17.2431 19.0971C17.2305 19.1337 17.2266 19.1716 17.2249 19.1894C17.2248 19.1902 17.2247 19.1909 17.2246 19.1916L17.2244 19.1927L17.2227 19.1994C17.2202 19.2096 17.2142 19.2345 17.2156 19.265L17.2203 19.2648C17.2199 19.268 17.2193 19.2728 17.2189 19.2781C17.2187 19.2813 17.2186 19.2852 17.2186 19.2894M17.2186 19.2894C17.2171 19.282 17.2159 19.2733 17.2156 19.2635L17.2205 19.2634C17.2206 19.2624 17.2207 19.2617 17.2208 19.2613L17.2209 19.261C17.2211 19.2596 17.221 19.26 17.221 19.2603L17.2206 19.2634L17.3655 19.258M17.2186 19.2894C17.2185 19.297 17.219 19.306 17.2206 19.3161L17.5111 21.1499M17.2186 19.2894C17.2195 19.2943 17.2206 19.2987 17.2216 19.3025C17.2231 19.3075 17.2246 19.3121 17.2257 19.3153C17.2265 19.3176 17.2272 19.3192 17.2274 19.3198C17.228 19.3213 17.2277 19.3206 17.2276 19.3204L17.2259 19.3155C17.2259 19.3154 17.2259 19.3153 17.2259 19.3152C17.2243 19.3104 17.2218 19.3012 17.2206 19.2892L17.3733 19.2121C17.3726 19.2184 17.371 19.2245 17.3695 19.2306C17.3672 19.2395 17.365 19.2484 17.3655 19.258M17.3655 19.258C17.3656 19.2612 17.3666 19.264 17.3677 19.2667C17.3687 19.2692 17.3696 19.2716 17.3698 19.2742C17.3701 19.2772 17.3697 19.2801 17.3692 19.283C17.3687 19.2862 17.3683 19.2894 17.3688 19.2926L17.6794 21.2538L17.5111 21.1499M17.5111 21.1499L12.5498 18.0863M17.5111 21.1499L12.5498 18.0863M12.5498 18.0863L16.3612 13.8899L16.6592 15.7713C16.6639 15.8013 16.6741 15.8247 16.6798 15.837L16.6836 15.8452L16.686 15.8503C16.6865 15.8512 16.6867 15.8518 16.6868 15.8521L12.5498 18.0863ZM17.1695 16.1592C17.1701 16.1594 17.1709 16.1596 17.1719 16.1598L17.1696 16.1592L17.1695 16.1592ZM17.1695 16.1592C17.1689 16.159 17.1685 16.1589 17.1687 16.159L17.1688 16.159L17.1689 16.1591L17.1695 16.1592ZM16.3184 12.485L16.3183 12.4851L11.412 17.887C11.3187 17.9897 11.2731 18.1268 11.2921 18.2643C11.3113 18.4026 11.3931 18.5215 11.5109 18.5944L11.5111 18.5945L17.8972 22.5381L17.8973 22.5381C18.0624 22.64 18.2753 22.639 18.4423 22.54C18.6107 22.4402 18.7094 22.2529 18.6786 22.058L18.2968 19.6475C19.3348 19.4843 21.6324 18.9235 23.2991 17.0426C24.9212 15.2124 25.4735 12.6652 24.9721 9.49957C24.9299 9.23363 24.6717 9.07261 24.4124 9.10649L24.4124 9.10643L24.4083 9.10707L24.4083 9.10707L24.4083 9.10708L24.4083 9.10708L24.4082 9.10708L24.4082 9.10709L24.4082 9.10709L24.4082 9.10709L24.4082 9.1071L24.4081 9.1071L24.4081 9.1071L24.4081 9.10711L24.4081 9.10711L24.4081 9.10711L24.408 9.10712L24.408 9.10712L24.408 9.10712L24.408 9.10713L24.408 9.10713L24.4079 9.10713L24.4079 9.10714L24.4079 9.10714L24.4079 9.10714L24.4079 9.10715L24.4078 9.10715L24.4078 9.10715L24.4078 9.10716L24.4078 9.10716L24.4078 9.10716L24.4077 9.10717L24.4077 9.10717L24.4077 9.10717L24.4077 9.10717L24.4077 9.10718L24.4076 9.10718L24.4076 9.10718L24.4076 9.10719L24.4076 9.10719L24.4076 9.10719L24.4075 9.1072L24.4075 9.1072L24.4075 9.1072L24.4075 9.10721L24.4075 9.10721L24.4074 9.10721L24.4074 9.10722L24.4074 9.10722L24.4074 9.10722L24.4074 9.10723L24.4073 9.10723L24.4073 9.10723L24.4073 9.10724L24.4073 9.10724L24.4073 9.10724L24.4072 9.10725L24.4072 9.10725L24.4072 9.10725L24.4072 9.10725L24.4072 9.10726L24.4071 9.10726L24.4071 9.10726L24.4071 9.10727L24.4071 9.10727L24.407 9.10727L24.407 9.10728L24.407 9.10728L24.407 9.10728L24.407 9.10729L24.4069 9.10729L24.4069 9.10729L24.4069 9.1073L24.4069 9.1073L24.4069 9.1073L24.4068 9.10731L24.4068 9.10731L24.4068 9.10731L24.4068 9.10732L24.4068 9.10732L24.4067 9.10732L24.4067 9.10733L24.4067 9.10733L24.4067 9.10733L24.4067 9.10733L24.4066 9.10734L24.4066 9.10734L24.4066 9.10734L24.4066 9.10735L24.4066 9.10735L24.4065 9.10735L24.4065 9.10736L24.4065 9.10736L24.4065 9.10736L24.4065 9.10737L24.4064 9.10737L24.4064 9.10737L24.4064 9.10738L24.4064 9.10738L24.4064 9.10738L24.4063 9.10739L24.4063 9.10739L24.4063 9.10739L24.4063 9.10739L24.4063 9.1074L24.4062 9.1074L24.4062 9.1074L24.4062 9.10741L24.4062 9.10741L24.4062 9.10741L24.4061 9.10742L24.4061 9.10742L24.4061 9.10742L24.4061 9.10743L24.4061 9.10743L24.406 9.10743L24.406 9.10744L24.406 9.10744L24.406 9.10744L24.406 9.10745L24.406 9.10745L24.4059 9.10745L24.4059 9.10745L24.4059 9.10746L24.4059 9.10746L24.4059 9.10746L24.4058 9.10747L24.4058 9.10747L24.4058 9.10747L24.4058 9.10748L24.4058 9.10748L24.4057 9.10748L24.4057 9.10749L24.4057 9.10749L24.4057 9.10749L24.4057 9.1075L24.4056 9.1075L24.4056 9.1075L24.4056 9.1075L24.4056 9.10751L24.4056 9.10751L24.4055 9.10751L24.4055 9.10752L24.4055 9.10752L24.4055 9.10752L24.4055 9.10753L24.4054 9.10753L24.4054 9.10753L24.4054 9.10754L24.4054 9.10754L24.4054 9.10754L24.4053 9.10755L24.4053 9.10755L24.4053 9.10755L24.4053 9.10755L24.4053 9.10756L24.4052 9.10756L24.4052 9.10756L24.4052 9.10757L24.4052 9.10757L24.4052 9.10757L24.4051 9.10758L24.4051 9.10758L24.4051 9.10758L24.4051 9.10759L24.4051 9.10759L24.405 9.10759L24.405 9.1076L24.405 9.1076L24.405 9.1076L24.405 9.1076L24.4049 9.10761L24.4049 9.10761L24.4049 9.10761L24.4049 9.10762L24.4049 9.10762L24.4048 9.10762L24.4048 9.10763L24.4048 9.10763L24.4048 9.10763L24.4048 9.10764L24.4047 9.10764L24.4047 9.10764L24.4047 9.10765L24.4047 9.10765L24.4047 9.10765L24.4046 9.10765L24.4046 9.10766L24.4046 9.10766L24.4046 9.10766L24.4046 9.10767L24.4045 9.10767L24.4045 9.10767L24.4045 9.10768L24.4045 9.10768L24.4045 9.10768L24.4045 9.10769L24.4044 9.10769L24.4044 9.10769L24.4044 9.10769L24.4044 9.1077L24.4044 9.1077L24.4043 9.1077L24.4043 9.10771L24.4043 9.10771L24.4043 9.10771L24.4043 9.10772L24.4042 9.10772L24.4042 9.10772L24.4042 9.10773L24.4042 9.10773L24.4042 9.10773L24.4041 9.10774L24.4041 9.10774L24.4041 9.10774L24.4041 9.10774L24.4041 9.10775L24.404 9.10775L24.404 9.10775L24.404 9.10776L24.404 9.10776L24.404 9.10776L24.4039 9.10777L24.4039 9.10777L24.4039 9.10777L24.4039 9.10778L24.4039 9.10778L24.4038 9.10778L24.4038 9.10778L24.4038 9.10779L24.4038 9.10779L24.4038 9.10779L24.4037 9.1078L24.4037 9.1078L24.4037 9.1078L24.4037 9.10781L24.4037 9.10781L24.4036 9.10781L24.4036 9.10782L24.4036 9.10782L24.4036 9.10782L24.4036 9.10783L24.4036 9.10783L24.4035 9.10783L24.4035 9.10783L24.4035 9.10784L24.4035 9.10784L24.4035 9.10784L24.4034 9.10785L24.4034 9.10785L24.4034 9.10785L24.4034 9.10786L24.4034 9.10786L24.4033 9.10786L24.4033 9.10787L24.4033 9.10787L24.4033 9.10787L24.4033 9.10787L24.4032 9.10788L24.4032 9.10788L24.4032 9.10788L24.4032 9.10789L24.4032 9.10789L24.4031 9.10789L24.4031 9.1079L24.4031 9.1079L24.4031 9.1079L24.4031 9.10791L24.403 9.10791L24.403 9.10791L24.403 9.10792L24.403 9.10792L24.403 9.10792L24.4029 9.10792L24.4029 9.10793L24.4029 9.10793L24.4029 9.10793L24.4029 9.10794L24.4028 9.10794L24.4028 9.10794L24.4028 9.10795L24.4028 9.10795L24.4028 9.10795L24.4027 9.10796L24.4027 9.10796L24.4027 9.10796L24.4027 9.10796L24.4027 9.10797L24.4027 9.10797L24.4026 9.10797L24.4026 9.10798L24.4026 9.10798L24.4026 9.10798L24.4026 9.10799L24.4025 9.10799L24.4025 9.10799L24.4025 9.108L24.4025 9.108L24.4025 9.108L24.4024 9.108L24.4024 9.10801L24.4024 9.10801L24.4024 9.10801L24.4024 9.10802L24.4023 9.10802L24.4023 9.10802L24.4023 9.10803L24.4023 9.10803L24.4023 9.10803L24.4022 9.10804L24.4022 9.10804L24.4022 9.10804L24.4022 9.10805L24.4022 9.10805L24.4021 9.10805L24.4021 9.10805L24.4021 9.10806L24.4021 9.10806L24.4021 9.10806L24.402 9.10807L24.402 9.10807L24.402 9.10807L24.402 9.10808L24.402 9.10808L24.4019 9.10808L24.4019 9.10809L24.4019 9.10809L24.4019 9.10809L24.4019 9.10809L24.4018 9.1081L24.4018 9.1081L24.4018 9.1081L24.4018 9.10811L24.4018 9.10811L24.4017 9.10811L24.4017 9.10812L24.4017 9.10812L24.4017 9.10812L24.4017 9.10813L24.4017 9.10813L24.4016 9.10813L24.4016 9.10814L24.4016 9.10814L24.4016 9.10814L24.4016 9.10814L24.4015 9.10815L24.4015 9.10815L24.4015 9.10815L24.4015 9.10816L24.4015 9.10816L24.4014 9.10816L24.4014 9.10817L24.4014 9.10817L24.4014 9.10817L24.4014 9.10818L24.4013 9.10818L24.4013 9.10818L24.4013 9.10819L24.4013 9.10819L24.4013 9.10819L24.4012 9.10819L24.4012 9.1082L24.4012 9.1082L24.4012 9.1082L24.4012 9.10821L24.4011 9.10821L24.4011 9.10821L24.4011 9.10822L24.4011 9.10822L24.4011 9.10822L24.401 9.10823L24.401 9.10823L24.401 9.10823L24.401 9.10824L24.401 9.10824L24.4009 9.10824L24.4009 9.10824L24.4009 9.10825L24.4009 9.10825L24.4009 9.10825L24.4008 9.10826L24.4008 9.10826L24.4008 9.10826L24.4008 9.10827L24.4008 9.10827L24.4007 9.10827L24.4007 9.10828L24.4007 9.10828L24.4007 9.10828L24.4007 9.10829L24.4006 9.10829L24.4006 9.10829L24.4006 9.10829L24.4006 9.1083L24.4006 9.1083L24.4005 9.1083L24.4005 9.10831L24.4005 9.10831L24.4005 9.10831L24.4005 9.10832L24.4004 9.10832L24.4004 9.10832L24.4004 9.10833L24.4004 9.10833L24.4004 9.10833L24.4003 9.10834L24.4003 9.10834L24.4003 9.10834L24.4003 9.10835L24.4003 9.10835L24.4002 9.10835L24.4002 9.10835L24.4002 9.10836L24.4002 9.10836L24.4002 9.10836L24.4001 9.10837L24.4001 9.10837L24.4001 9.10837L24.4001 9.10838L24.4001 9.10838L24.4 9.10838L24.4 9.10839L24.4 9.10839L24.4 9.10839L24.4 9.1084L24.3999 9.1084L24.3999 9.1084L24.3999 9.10841L24.3999 9.10841L24.3999 9.10841L24.3998 9.10841L24.3998 9.10842L24.3998 9.10842L24.3998 9.10842L24.3998 9.10843L24.3997 9.10843L24.3997 9.10843L24.3997 9.10844L24.3997 9.10844L24.3997 9.10844L24.3996 9.10845L24.3996 9.10845L24.3996 9.10845L24.3996 9.10846L24.3996 9.10846L24.3995 9.10846L24.3995 9.10847L24.3995 9.10847L24.3995 9.10847L24.3995 9.10848L24.3994 9.10848L24.3994 9.10848L24.3994 9.10848L24.3994 9.10849L24.3994 9.10849L24.3993 9.10849L24.3993 9.1085L24.3993 9.1085L24.3993 9.1085L24.3993 9.10851L24.3992 9.10851L24.3992 9.10851L24.3992 9.10852L24.3992 9.10852L24.3992 9.10852L24.3991 9.10853L24.3991 9.10853L24.3991 9.10853L24.3991 9.10854L24.3991 9.10854L24.399 9.10854L24.399 9.10855L24.399 9.10855L24.399 9.10855L24.399 9.10856L24.3989 9.10856L24.3989 9.10856L24.3989 9.10856L24.3989 9.10857L24.3989 9.10857L24.3988 9.10857L24.3988 9.10858L24.3988 9.10858L24.3988 9.10858L24.3988 9.10859L24.3987 9.10859L24.3987 9.10859L24.3987 9.1086L24.3987 9.1086L24.3987 9.1086L24.3986 9.10861L24.3986 9.10861L24.3986 9.10861L24.3986 9.10862L24.3986 9.10862L24.3985 9.10862L24.3985 9.10863L24.3985 9.10863L24.3985 9.10863L24.3985 9.10864L24.3984 9.10864L24.3984 9.10864L24.3984 9.10865L24.3984 9.10865L24.3983 9.10865L24.3983 9.10866L24.3983 9.10866L24.3983 9.10866L24.3983 9.10867L24.3982 9.10867L24.3982 9.10867L24.3982 9.10867L24.3982 9.10868L24.3982 9.10868L24.3981 9.10868C24.1456 9.14868 23.9452 9.36824 23.9697 9.6301L23.9698 9.63077L23.9698 9.63099C23.9707 9.64224 24.0048 10.0689 23.8735 10.6801C23.7403 11.3004 23.4375 12.1078 22.7594 12.8655C21.6804 14.0712 19.9439 14.8432 17.5854 15.1559L17.1985 12.7129C17.168 12.5209 17.0201 12.3748 16.8328 12.3295L16.8322 12.3294C16.7633 12.313 16.6928 12.3109 16.6248 12.3217C16.5098 12.3399 16.3999 12.3955 16.3184 12.485ZM16.8073 15.7478L16.4905 13.7476L16.851 15.8598C16.8431 15.8467 16.8384 15.8324 16.8336 15.8179C16.8316 15.8119 16.8297 15.8059 16.8275 15.7999C16.8252 15.7936 16.8223 15.7876 16.8194 15.7815C16.8144 15.7709 16.8093 15.7602 16.8073 15.7478Z" fill="#B82117" stroke="#B82117" stroke-width="0.3" stroke-linecap="round" stroke-linejoin="round"/>
</svg>
